<svg width="120" height="40" viewBox="0 0 120 40" fill="none" xmlns="http://www.w3.org/2000/svg">
<path d="M105.625 15.125C105.625 14.0204 106.52 13.125 107.625 13.125H108.625C109.73 13.125 110.625 14.0204 110.625 15.125V16.125C110.625 17.2296 111.52 18.125 112.625 18.125H113C114.105 18.125 115 17.2296 115 16.125V15.1264C115 14.0222 115.895 13.1269 116.999 13.1264L117.999 13.1259C119.104 13.1254 120 14.021 120 15.1259L120 24.8749C120 25.9795 119.104 26.8749 118 26.8749L117 26.8748C115.895 26.8747 115 25.9793 115 24.8748V23.875C115 22.7704 114.105 21.875 113 21.875H112.625C111.52 21.875 110.625 22.7704 110.625 23.875L110.625 24.8806C110.625 25.9828 109.733 26.8772 108.631 26.8774C108.296 26.8775 107.957 26.8774 107.622 26.8772C106.519 26.8765 105.625 25.9814 105.625 24.878L105.625 15.125Z" fill="#2B6BF3"/>
<path d="M96.3142 12.7106C98.0021 12.2965 99.9762 12.4641 101.988 13.4725C102.309 13.6333 102.5 13.9683 102.5 14.3271V15.0985C102.5 15.8769 101.638 16.3708 100.911 16.0932C99.8911 15.704 98.7602 15.4809 97.8089 15.7265C97.0145 15.91 96.8148 17.1028 97.4658 17.5809C98.904 18.7182 100.972 18.7617 102.236 20.1791C103.2 21.2198 103.268 22.8038 102.965 24.1342C102.401 26.1432 100.356 27.2877 98.434 27.4543C96.5699 27.6125 94.6494 27.3742 92.9874 26.5138C92.6785 26.3539 92.5 26.0268 92.5 25.6791V24.4363C92.5 23.6225 93.4385 23.1281 94.1726 23.4793C95.2399 23.9899 96.4344 24.3385 97.454 24.1873C98.098 24.098 98.81 23.6054 98.7536 22.8617C98.5609 22.0987 97.7525 21.7944 97.1227 21.5071C95.9147 20.9541 94.5305 20.6378 93.5716 19.6454C92.5212 18.5685 92.4107 16.8348 92.9324 15.4705C93.4964 14.0193 94.8971 13.109 96.3142 12.7106Z" fill="#2B6BF3"/>
<path fill-rule="evenodd" clip-rule="evenodd" d="M83.75 27.5C83.75 29.375 83.125 36.25 65.3125 36.25L65.3125 34.375C80.625 34.375 81.875 29.375 81.875 27.5L83.75 27.5Z" fill="#C2D2F4"/>
<path fill-rule="evenodd" clip-rule="evenodd" d="M83.75 27.5C83.75 29.375 83.125 36.25 65.3125 36.25L65.3125 34.375C80.625 34.375 81.875 29.375 81.875 27.5L83.75 27.5Z" fill="#B7C6E7"/>
<path fill-rule="evenodd" clip-rule="evenodd" d="M86.0475 12.7814C86.0572 12.7454 86.0577 12.7435 86.0577 12.7739C86.0577 10.9905 84.6048 9.54475 82.8125 9.54475C81.0202 9.54475 79.5673 10.9905 79.5673 12.7739C79.5673 12.7435 79.5678 12.7454 79.5775 12.7814C79.6078 12.8934 79.727 13.3348 80.1964 14.1608C80.7484 15.1321 81.5447 16.2218 82.4341 17.298C82.5602 17.4506 82.6866 17.601 82.8125 17.7488C82.9384 17.601 83.0648 17.4506 83.1909 17.298C84.0802 16.2218 84.8766 15.1321 85.4286 14.1608C85.898 13.3348 86.0172 12.8934 86.0475 12.7814ZM82.8125 24.375C82.8125 24.375 90.625 17.0673 90.625 12.7739C90.625 8.4805 87.1272 5 82.8125 5C78.4978 5 75 8.4805 75 12.7739C75 17.0673 82.8125 24.375 82.8125 24.375Z" fill="#FFDD2D"/>
<path fill-rule="evenodd" clip-rule="evenodd" d="M68.5475 20.2814C68.5572 20.2454 68.5577 20.2435 68.5577 20.2739C68.5577 18.4905 67.1048 17.0448 65.3125 17.0448C63.5202 17.0448 62.0673 18.4905 62.0673 20.2739C62.0673 20.2435 62.0678 20.2454 62.0775 20.2814C62.1078 20.3934 62.227 20.8348 62.6964 21.6608C63.2484 22.6321 64.0447 23.7218 64.9341 24.798C65.0602 24.9506 65.1866 25.101 65.3125 25.2488C65.4384 25.101 65.5648 24.9506 65.6909 24.798C66.5802 23.7218 67.3766 22.6321 67.9286 21.6608C68.398 20.8348 68.5172 20.3934 68.5475 20.2814ZM65.3125 31.875C65.3125 31.875 73.125 24.5673 73.125 20.2739C73.125 15.9805 69.6272 12.5 65.3125 12.5C60.9978 12.5 57.5 15.9805 57.5 20.2739C57.5 24.5673 65.3125 31.875 65.3125 31.875Z" fill="#2B6BF3"/>
<path d="M40 15.125C40 14.0204 40.8954 13.125 42 13.125H43C44.1046 13.125 45 14.0204 45 15.125V16.125C45 17.2296 45.8955 18.125 47 18.125H47.375C48.4796 18.125 49.375 17.2296 49.375 16.125V15.1264C49.375 14.0222 50.2699 13.1269 51.3741 13.1264L52.3741 13.1259C53.479 13.1254 54.375 14.021 54.375 15.1259L54.375 24.8749C54.375 25.9795 53.4795 26.8749 52.3749 26.8749L51.3749 26.8748C50.2704 26.8747 49.375 25.9793 49.375 24.8748V23.875C49.375 22.7704 48.4796 21.875 47.375 21.875H47C45.8955 21.875 45 22.7704 45 23.875L45 24.8806C45 25.9828 44.1082 26.8772 43.006 26.8774C42.6705 26.8775 42.3324 26.8774 41.997 26.8772C40.8936 26.8765 40 25.9814 40 24.878L40 15.125Z" fill="#2B6BF3"/>
<path d="M4.375 11.25C4.375 10.3125 5 9.41027 6.25 9.375H16.5922C17.4966 9.375 18.2884 9.98183 18.5235 10.8551L19.4664 14.3575C19.7226 15.3088 21.0548 15.3556 21.377 14.4246L22.6581 10.7239C22.9374 9.91689 23.6984 9.37627 24.5525 9.37817L26.0798 9.38156C26.9303 9.38345 27.6866 9.92302 27.9651 10.7266L29.2481 14.4287C29.5706 15.3592 30.9022 15.3124 31.1585 14.3615L32.1012 10.8642C32.3365 9.99124 33.1282 9.38471 34.0323 9.38471L35.3809 9.38471C36.7371 9.38471 37.7001 10.7059 37.2849 11.997L32.9463 25.4873C32.6803 26.3143 31.911 26.875 31.0423 26.875H29.0808C28.1542 26.875 27.3489 26.2385 27.1349 25.337L26.2877 21.7687C26.0444 20.7438 24.5862 20.7432 24.342 21.7679L23.4911 25.3386C23.2765 26.2394 22.4716 26.875 21.5456 26.875H13.125C11.875 26.875 11.25 25.9375 11.25 25C11.25 24.0625 11.875 23.125 13.125 23.125H15C16.25 23.125 16.875 22.5 16.875 21.5625C16.875 20.625 16.25 20 15 20H1.875C0.625 20 0 19.0625 0 18.125C0 17.1875 0.625 16.25 1.875 16.25H13.75C15 16.25 15.625 15.625 15.625 14.6875C15.625 13.75 14.9552 13.1087 13.75 13.125H6.25C5 13.125 4.375 12.1875 4.375 11.25Z" fill="#2B6BF3"/>
<path d="M3.75 25C3.75 23.9645 4.58947 23.125 5.625 23.125H7.5C8.53553 23.125 9.375 23.9645 9.375 25C9.375 26.0355 8.53553 26.875 7.5 26.875H5.625C4.58947 26.875 3.75 26.0355 3.75 25Z" fill="#2B6BF3"/>
</svg>
